<svg xmlns="http://www.w3.org/2000/svg" xmlns:xlink="http://www.w3.org/1999/xlink" width="529.652" height="80" viewBox="0 0 529.652 80"><defs><linearGradient id="a" y1="0.852" x2="1" y2="0.884" gradientUnits="objectBoundingBox"><stop offset="0" stop-color="#00deff"/><stop offset="1" stop-color="#1077e2"/></linearGradient></defs><path d="M35.269-172.019c16.457,0,26.049-7.815,26.049-20.137v-.041c0-9.676-6.078-14.885-18.855-17.2l-6-1.075c-5.954-1.075-8.518-2.357-8.518-5.045v-.041c0-2.729,2.481-4.838,7.319-4.838,4.8,0,8.27,2.067,8.6,5.334l.041.413H60.037l-.041-.91c-.5-11.164-8.973-18.276-24.933-18.276-14.141,0-24.478,7.567-24.478,19.558v.041c0,9.262,6.492,15.258,18.359,17.366l6,1.075c6.616,1.2,9.014,2.357,9.014,5.169v.041c0,2.977-3.225,5.127-8.476,5.127-4.962,0-9.014-2.15-9.717-5.375l-.083-.372H9.551l.041.786C10.212-178.635,19.805-172.019,35.269-172.019Zm30.785-1.075H83.007V-198.73c0-4.259,2.44-7.36,6.45-7.36,4.259,0,6.409,2.812,6.409,7.4v25.595h16.953V-202.41c0-10.957-5.623-17.325-15.671-17.325-6.905,0-11.578,3.308-13.81,9.469h-.331v-8.476H66.054Zm75.75.992c14.927,0,24.023-8.559,24.023-23.775v-.083c0-15.009-9.345-23.775-24.023-23.775-14.637,0-23.982,8.89-23.982,23.775v.083C117.822-180.7,126.836-172.1,141.8-172.1Zm.041-12.57c-4.3,0-6.822-3.969-6.822-11.205v-.083c0-7.071,2.6-11.205,6.781-11.205,4.135,0,6.822,4.135,6.822,11.205v.083C148.627-188.683,146.063-184.672,141.846-184.672Zm52.016,12.57c14.927,0,24.023-8.559,24.023-23.775v-.083c0-15.009-9.345-23.775-24.023-23.775-14.637,0-23.982,8.89-23.982,23.775v.083C169.88-180.7,178.894-172.1,193.862-172.1Zm.041-12.57c-4.3,0-6.822-3.969-6.822-11.205v-.083c0-7.071,2.6-11.205,6.781-11.205,4.135,0,6.822,4.135,6.822,11.205v.083C200.684-188.683,198.121-184.672,193.9-184.672Zm52.016,12.57c14.927,0,24.023-8.559,24.023-23.775v-.083c0-15.009-9.345-23.775-24.023-23.775-14.637,0-23.982,8.89-23.982,23.775v.083C221.937-180.7,230.951-172.1,245.919-172.1Zm.041-12.57c-4.3,0-6.822-3.969-6.822-11.205v-.083c0-7.071,2.6-11.205,6.781-11.205,4.135,0,6.822,4.135,6.822,11.205v.083C252.742-188.683,250.178-184.672,245.961-184.672Zm52.016,12.57C312.9-172.1,322-180.661,322-195.877v-.083c0-15.009-9.345-23.775-24.023-23.775-14.637,0-23.982,8.89-23.982,23.775v.083C273.995-180.7,283.009-172.1,297.977-172.1Zm.041-12.57c-4.3,0-6.822-3.969-6.822-11.205v-.083c0-7.071,2.6-11.205,6.781-11.205,4.135,0,6.822,4.135,6.822,11.205v.083C304.8-188.683,302.236-184.672,298.018-184.672Zm26.713,11.578h41.142v-12.239H346.687v-.331L364.963-208.7v-10.048h-39.57V-206.5h20.137v.331l-20.8,24.478Zm67.689.992c15.878,0,21.088-9.3,22.452-15.258L415-187.9H399.9l-.041.124c-.455,1.323-2.646,4.011-7.112,4.011-4.631,0-7.443-3.1-7.608-8.352H415.2v-4.8c0-13.893-9.1-22.824-23.32-22.824-14.265,0-23.279,8.931-23.279,23.775v.041C368.6-181.074,377.617-172.1,392.42-172.1Zm-.083-35.973c3.68,0,6.244,2.316,6.988,6.368H385.349C386.094-205.759,388.657-208.075,392.337-208.075Z" transform="translate(114.449 252.016)" fill="url(#a)"/><path d="M189.38,117.091H147.927l-7.172-7.963a3.905,3.905,0,0,0-2.53-1.127H115.746a6.686,6.686,0,0,0-6.666,6.666v21.514h86.966V123.757A6.686,6.686,0,0,0,189.38,117.091Z" transform="translate(-94.384 -108)" fill="#1077e2"/><rect width="45" height="45" transform="translate(47 27)" fill="#020b0d"/><path d="M162.194,168H81.943a6.686,6.686,0,0,0-6.666,6.666V178.3h27.835a2.342,2.342,0,0,1,0,4.685H62.922a2.342,2.342,0,0,0-2.342,2.342h0a2.342,2.342,0,0,0,2.342,2.342H98.4a2.342,2.342,0,1,1,0,4.685H72.286a2.342,2.342,0,0,0-2.342,2.342h0a2.342,2.342,0,0,0,2.342,2.342H90.712a2.342,2.342,0,0,1,0,4.685H65.5a2.342,2.342,0,0,0-2.342,2.342h0a2.342,2.342,0,0,0,2.342,2.342H95.8a2.342,2.342,0,1,1,0,4.685H69.558a2.342,2.342,0,0,0-2.342,2.342h0a2.342,2.342,0,0,0,2.342,2.342H88.364a2.342,2.342,0,1,1,0,4.685H75.276v2.688a6.686,6.686,0,0,0,6.666,6.666h74.291a6.48,6.48,0,0,0,6.215-5.4l6.791-48.313A6.928,6.928,0,0,0,162.2,168Zm-31.92,50.3a19.242,19.242,0,0,1-2-38.38,16.363,16.363,0,0,0,20.075,25.744A19.25,19.25,0,0,1,130.274,218.3Z" transform="translate(-60.58 -149.819)" fill="#00deff"/></svg>